<?xml version="1.0" standalone="no"?>
<svg width="64" height="64" viewBox="0 0 1024 768" version="1.1" xmlns="http://www.w3.org/2000/svg">
  <path d="M213 213q0 -124 87 -211t212 -87t212 87t87 211v171h-598v-171zM687 708l90 90l-35 34l-98 -98q-61 34 -132 34q-65 0 -132 -30l-98 98l-35 -38l90 -90q-58 -38 -91 -101.5t-33 -137.5v-42h598v42q0 74 -33 137.5t-91 101.5zM384 512q-19 0 -31 11.5t-12 31t12 31    t31 11.5t31 -11.5t12 -31t-12 -31t-31 -11.5zM640 512q-19 0 -31 11.5t-12 31t12 31t31 11.5t31 -11.5t12 -31t-12 -31t-31 -11.5z" transform="matrix(1,0,0,-1,0,768)"/>
</svg>